name ./resultDataOpenSim/trcMotMarkerGrf/sub06/grf-04-04.mot
datacolumns 19
datarows 27
range 1.07200000 1.17600000
endheader

                time	     ground_force_vx	     ground_force_vy	     ground_force_vz	     ground_force_px	     ground_force_py	     ground_force_pz	   l_ground_force_vx	   l_ground_force_vy	   l_ground_force_vz	   l_ground_force_px	   l_ground_force_py	   l_ground_force_pz	     ground_torque_x	     ground_torque_y	     ground_torque_z	   l_ground_torque_x	   l_ground_torque_y	   l_ground_torque_z	
          1.07200000	          0.00000000	          0.00000000	          0.00000000	          0.00000000	          0.00000000	          0.00000000	        163.90362719	        806.02051674	         33.29640463	          0.09043903	         -0.07500000	         -0.02683721	          0.00000000	          0.00000000	          0.00000000	          0.00000000	         -3.35075505	          0.00000000	
          1.07600000	          0.00000000	          0.00000000	          0.00000000	          0.00000000	          0.00000000	          0.00000000	        170.17100574	        800.71497819	         31.57140353	          0.09116521	         -0.07500000	         -0.02633190	          0.00000000	          0.00000000	          0.00000000	          0.00000000	         -3.33572567	          0.00000000	
          1.08000000	          0.00000000	          0.00000000	          0.00000000	          0.00000000	          0.00000000	          0.00000000	        175.98687068	        792.25991478	         29.77951204	          0.09193286	         -0.07500000	         -0.02583653	          0.00000000	          0.00000000	          0.00000000	          0.00000000	         -3.29632779	          0.00000000	
          1.08400000	          0.00000000	          0.00000000	          0.00000000	          0.00000000	          0.00000000	          0.00000000	        181.23050012	        780.60002461	         27.93844849	          0.09273110	         -0.07500000	         -0.02536203	          0.00000000	          0.00000000	          0.00000000	          0.00000000	         -3.23317683	          0.00000000	
          1.08800000	          0.00000000	          0.00000000	          0.00000000	          0.00000000	          0.00000000	          0.00000000	        185.77365281	        765.69943786	         26.04787574	          0.09353552	         -0.07500000	         -0.02491643	          0.00000000	          0.00000000	          0.00000000	          0.00000000	         -3.14656757	          0.00000000	
          1.09200000	         -4.56046681	         11.11677221	          3.17294980	          0.73255399	          0.00000000	          0.09305914	        189.47412293	        747.53966230	         24.09175976	          0.09430491	         -0.07500000	         -0.02450956	          0.00000000	          0.44760088	          0.00000000	          0.00000000	         -3.03653178	          0.00000000	
          1.09600000	        -15.68979837	        120.61067443	         12.29680946	          0.73559887	          0.00000000	          0.09203257	        192.16249559	        726.06105142	         22.05179566	          0.09502566	         -0.07500000	         -0.02414561	          0.00000000	          0.39666302	          0.00000000	          0.00000000	         -2.90307392	          0.00000000	
          1.10000000	        -26.14252811	        221.77308301	         21.31654056	          0.73870886	          0.00000000	          0.09087669	        193.62518933	        701.10655834	         19.91365747	          0.09572073	         -0.07500000	         -0.02381339	          0.00000000	          0.29275656	          0.00000000	          0.00000000	         -2.74649329	          0.00000000	
          1.10400000	        -35.78228711	        306.49521014	         29.73451017	          0.74180762	          0.00000000	          0.09004405	        193.63906759	        672.43783633	         17.67592656	          0.09641956	         -0.07500000	         -0.02350446	          0.00000000	          0.10839141	          0.00000000	          0.00000000	         -2.56765781	          0.00000000	
          1.10800000	        -44.86099959	        370.73985609	         36.66182732	          0.74418360	          0.00000000	          0.09023394	        192.04260869	        639.81734498	         15.37214953	          0.09713399	         -0.07500000	         -0.02323165	          0.00000000	         -0.16317008	          0.00000000	          0.00000000	         -2.36823052	          0.00000000	
          1.11200000	        -53.79013242	        416.55061988	         41.06773765	          0.74578493	          0.00000000	          0.09151319	        188.72453173	        603.11104143	         13.07095648	          0.09788552	         -0.07500000	         -0.02301974	          0.00000000	         -0.49958922	          0.00000000	          0.00000000	         -2.15099684	          0.00000000	
          1.11600000	        -63.13683861	        450.01605945	         42.21189118	          0.74767293	          0.00000000	          0.09320904	        183.52424452	        562.38809025	         10.84234698	          0.09870516	         -0.07500000	         -0.02287803	          0.00000000	         -0.84785650	          0.00000000	          0.00000000	         -1.92024323	          0.00000000	
          1.12000000	        -73.71744058	        476.88452742	         39.85513364	          0.75100509	          0.00000000	          0.09476175	        176.18530927	        517.96603109	          8.73895250	          0.09964068	         -0.07500000	         -0.02278394	          0.00000000	         -1.13245424	          0.00000000	          0.00000000	         -1.68181682	          0.00000000	
          1.12400000	        -86.11548046	        500.08322316	         34.20583337	          0.75572109	          0.00000000	          0.09627280	        166.44545350	        470.39031515	          6.81087291	          0.10075051	         -0.07500000	         -0.02272824	          0.00000000	         -1.27341413	          0.00000000	          0.00000000	         -1.44260851	          0.00000000	
          1.12800000	       -100.09108173	        520.75942347	         25.87531575	          0.76074549	          0.00000000	          0.09804703	        154.20862797	        420.45316585	          5.11586623	          0.10209110	         -0.07500000	         -0.02272209	          0.00000000	         -1.21043633	          0.00000000	          0.00000000	         -1.20970876	          0.00000000	
          1.13200000	       -114.91625021	        540.45911985	         15.79844422	          0.76522024	          0.00000000	          0.10002519	        139.66897408	        369.28260398	          3.70478291	          0.10371400	         -0.07500000	         -0.02276723	          0.00000000	         -0.92543557	          0.00000000	          0.00000000	         -0.98972687	          0.00000000	
          1.13600000	       -130.24386824	        561.62719952	          5.00494633	          0.76936863	          0.00000000	          0.10182490	        123.30261413	        318.36326235	          2.59800875	          0.10565318	         -0.07500000	         -0.02286126	          0.00000000	         -0.45459519	          0.00000000	          0.00000000	         -0.78842828	          0.00000000	
          1.14000000	       -146.20090343	        586.35991045	         -5.54179960	          0.77389589	          0.00000000	          0.10311457	        105.79435590	        269.35667038	          1.77152387	          0.10789305	         -0.07500000	         -0.02298849	          0.00000000	          0.11612137	          0.00000000	          0.00000000	         -0.61045264	          0.00000000	
          1.14400000	       -162.63697899	        615.22709791	        -14.94276924	          0.77885422	          0.00000000	          0.10387473	         88.00035499	        223.76372478	          1.16536322	          0.11037901	         -0.07500000	         -0.02310131	          0.00000000	          0.67175963	          0.00000000	          0.00000000	         -0.45897492	          0.00000000	
          1.14800000	       -178.76724048	        647.36461551	        -22.40657484	          0.78353877	          0.00000000	          0.10432103	         70.90270385	        182.62705535	          0.71036762	          0.11300888	         -0.07500000	         -0.02314327	          0.00000000	          1.09825556	          0.00000000	          0.00000000	         -0.33550459	          0.00000000	
          1.15200000	       -193.75968733	        681.48433628	        -27.38876930	          0.78734851	          0.00000000	          0.10465843	         55.45913242	        146.41563196	          0.35392094	          0.11562955	         -0.07500000	         -0.02307860	          0.00000000	          1.31054704	          0.00000000	          0.00000000	         -0.24002245	          0.00000000	
          1.15600000	       -207.37159131	        716.71747130	        -29.67414410	          0.79038493	          0.00000000	          0.10492109	         42.37380462	        115.06401584	          0.07279678	          0.11814344	         -0.07500000	         -0.02286851	          0.00000000	          1.27022147	          0.00000000	          0.00000000	         -0.17135085	          0.00000000	
          1.16000000	       -219.78331070	        752.60328236	        -29.37526990	          0.79312874	          0.00000000	          0.10501804	         31.91269854	         88.10783220	         -0.13386465	          0.12073398	         -0.07500000	         -0.02242327	          0.00000000	          0.98987931	          0.00000000	          0.00000000	         -0.12747510	          0.00000000	
          1.16400000	       -231.03328448	        788.45693403	        -26.92144356	          0.79576363	          0.00000000	          0.10490869	         23.86452976	         64.89094618	         -0.27027335	          0.12400957	         -0.07500000	         -0.02153171	          0.00000000	          0.52626270	          0.00000000	          0.00000000	         -0.10562567	          0.00000000	
          1.16800000	       -240.89908956	        822.96697222	        -23.03063361	          0.79804644	          0.00000000	          0.10469208	         17.67763331	         44.74192386	         -0.36138355	          0.12909709	         -0.07500000	         -0.01968877	          0.00000000	         -0.03412085	          0.00000000	          0.00000000	         -0.10211024	          0.00000000	
          1.17200000	       -249.21919321	        854.56516864	        -18.63094180	          0.79976384	          0.00000000	          0.10450638	         12.72445619	         27.02650752	         -0.43855273	          0.13819604	         -0.07500000	         -0.01575105	          0.00000000	         -0.59322771	          0.00000000	          0.00000000	         -0.11206873	          0.00000000	
          1.17600000	       -256.01734371	        882.17618924	        -14.75208217	          0.80104299	          0.00000000	          0.10439091	          8.55234763	         11.18041429	         -0.51433771	          0.15593523	         -0.07500000	         -0.00718251	          0.00000000	         -1.05997121	          0.00000000	          0.00000000	         -0.12954712	          0.00000000	
